name analog
datacolumns 19
datarows 63
range 0.3375 0.3685
endheader
time	ground_force_vx	ground_force_vy	ground_force_vz	ground_force_px	ground_force_py	ground_force_pz	l_ground_force_vx	l_ground_force_vy	l_ground_force_vz	l_ground_force_px	l_ground_force_py	l_ground_force_pz	ground_torque_x	ground_torque_y	ground_torque_z	l_ground_torque_x	l_ground_torque_y	l_ground_torque_z
0.3375	-0.0	-0.0	-0.0	-0.0	-0.0	-0.0	-2.8763091564178467	2.588375329971313	-499.4881286621094	-0.0	-0.0	-0.0	-0.0	-0.0	-0.0	174449.234375	-22544.83203125	-1561.021240234375
0.338	-0.0	-0.0	-0.0	-0.0	-0.0	-0.0	-2.1935760974884038	1.9564592838287356	-498.6837463378906	-0.0	-0.0	-0.0	-0.0	-0.0	-0.0	173851.578125	-22556.640625	-1179.5345458984375
0.3385	-0.0	-0.0	-0.0	-0.0	-0.0	-0.0	-1.5569053888320925	1.1217060089111328	-498.2393798828125	-0.0	-0.0	-0.0	-0.0	-0.0	-0.0	173447.03125	-22771.76953125	-759.4784545898438
0.339	-0.0	-0.0	-0.0	-0.0	-0.0	-0.0	-0.7606333494186401	0.567528247833252	-497.6378173828125	-0.0	-0.0	-0.0	-0.0	-0.0	-0.0	172995.296875	-23018.677734375	-292.6288146972656
0.3395	-0.0	-0.0	-0.0	-0.0	-0.0	-0.0	-0.0626527965068817	0.0636186152696609	-497.8389587402344	-0.0	-0.0	-0.0	-0.0	-0.0	-0.0	172334.0	-23029.55859375	110.33089447021484
0.34	-0.0	-0.0	-0.0	-0.0	-0.0	-0.0	0.9379116892814636	-0.8839970827102661	-495.8460693359375	-0.0	-0.0	-0.0	-0.0	-0.0	-0.0	171697.421875	-23007.5390625	674.352294921875
0.3405	-0.0	-0.0	-0.0	-0.0	-0.0	-0.0	1.8249598741531368	-1.7918766736984253	-494.3484191894531	-0.0	-0.0	-0.0	-0.0	-0.0	-0.0	170925.6875	-22934.44921875	1043.35693359375
0.341	-0.0	-0.0	-0.0	-0.0	-0.0	-0.0	2.572612762451172	-2.725404500961304	-492.9027099609375	-0.0	-0.0	-0.0	-0.0	-0.0	-0.0	170599.28125	-22694.0234375	1306.3551025390625
0.3415	-0.0	-0.0	-0.0	-0.0	-0.0	-0.0	2.62257719039917	-3.192017078399658	-494.14788818359375	-0.0	-0.0	-0.0	-0.0	-0.0	-0.0	170106.953125	-22657.935546875	1335.9361572265625
0.342	-0.0	-0.0	-0.0	-0.0	-0.0	-0.0	1.6226096153259275	-3.2689929008483887	-493.6517639160156	-0.0	-0.0	-0.0	-0.0	-0.0	-0.0	170007.078125	-22222.44140625	916.1421508789062
0.3425	-0.0	-0.0	-0.0	-0.0	-0.0	-0.0	0.7479300498962402	-3.458282470703125	-493.2488403320313	-0.0	-0.0	-0.0	-0.0	-0.0	-0.0	169876.0	-21988.9609375	473.7517700195313
0.343	-0.0	-0.0	-0.0	-0.0	-0.0	-0.0	0.0383005104959011	-3.167524099349976	-493.6527404785156	-0.0	-0.0	-0.0	-0.0	-0.0	-0.0	169662.203125	-21936.943359375	54.50138092041016
0.3435	-0.0	-0.0	-0.0	-0.0	-0.0	-0.0	-0.6593531370162964	-3.582979679107666	-494.0024719238281	-0.0	-0.0	-0.0	-0.0	-0.0	-0.0	169553.359375	-21727.21484375	-103.20425415039062
0.34400000000000003	-0.0	-0.0	-0.0	-0.0	-0.0	-0.0	-1.153240203857422	-4.442587852478027	-493.5025634765625	-0.0	-0.0	-0.0	-0.0	-0.0	-0.0	169081.203125	-21520.31640625	-281.7801818847656
0.34450000000000003	-0.0	-0.0	-0.0	-0.0	-0.0	-0.0	-1.6085041761398315	-5.310959815979004	-494.2010803222656	-0.0	-0.0	-0.0	-0.0	-0.0	-0.0	169072.3125	-21419.078125	-380.2940673828125
0.34500000000000003	-0.0	-0.0	-0.0	-0.0	-0.0	-0.0	-1.7240824699401855	-5.944456100463867	-493.8067626953125	-0.0	-0.0	-0.0	-0.0	-0.0	-0.0	168994.9375	-21311.537109375	-523.788818359375
0.34550000000000003	-0.0	-0.0	-0.0	-0.0	-0.0	-0.0	-1.9516372680664065	-5.795110702514648	-495.7503662109375	-0.0	-0.0	-0.0	-0.0	-0.0	-0.0	169108.296875	-21470.021484375	-532.9927368164062
0.34600000000000003	-0.0	-0.0	-0.0	-0.0	-0.0	-0.0	-2.2790639400482178	-5.978578567504883	-494.8367614746094	-0.0	-0.0	-0.0	-0.0	-0.0	-0.0	169063.46875	-21382.330078125	-537.0921630859375
0.34650000000000003	-0.0	-0.0	-0.0	-0.0	-0.0	-0.0	-1.713125705718994	-5.32680082321167	-495.66357421875	-0.0	-0.0	-0.0	-0.0	-0.0	-0.0	169188.84375	-21336.1484375	-456.7681274414063
0.34700000000000003	-0.0	-0.0	-0.0	-0.0	-0.0	-0.0	-1.192073941230774	-5.062004566192627	-495.5989990234375	-0.0	-0.0	-0.0	-0.0	-0.0	-0.0	169248.390625	-21670.982421875	-230.15306091308597
0.34750000000000003	-0.0	-0.0	-0.0	-0.0	-0.0	-0.0	-0.5151320099830627	-4.818952560424805	-496.6221923828125	-0.0	-0.0	-0.0	-0.0	-0.0	-0.0	169301.609375	-21549.552734375	-103.59391784667967
0.34800000000000003	-0.0	-0.0	-0.0	-0.0	-0.0	-0.0	0.0497339181602001	-4.35585880279541	-497.03851318359375	-0.0	-0.0	-0.0	-0.0	-0.0	-0.0	169297.1875	-21932.38671875	163.8797149658203
0.34850000000000003	-0.0	-0.0	-0.0	-0.0	-0.0	-0.0	1.0929193496704102	-3.974475860595703	-498.0857238769531	-0.0	-0.0	-0.0	-0.0	-0.0	-0.0	169445.90625	-21944.095703125	520.6680297851562
0.34900000000000003	-0.0	-0.0	-0.0	-0.0	-0.0	-0.0	1.291551113128662	-4.49396276473999	-498.0854187011719	-0.0	-0.0	-0.0	-0.0	-0.0	-0.0	169408.578125	-22263.427734375	824.3070068359375
0.34950000000000003	-0.0	-0.0	-0.0	-0.0	-0.0	-0.0	2.149772882461548	-4.405772686004639	-498.7834777832031	-0.0	-0.0	-0.0	-0.0	-0.0	-0.0	169565.40625	-22357.7421875	1120.716796875
0.35000000000000003	-0.0	-0.0	-0.0	-0.0	-0.0	-0.0	3.2140395641326904	-3.847083806991577	-499.4010314941406	-0.0	-0.0	-0.0	-0.0	-0.0	-0.0	169469.0	-22525.763671875	1316.7845458984375
0.35050000000000003	-0.0	-0.0	-0.0	-0.0	-0.0	-0.0	3.686542272567749	-3.49372935295105	-499.2115173339844	-0.0	-0.0	-0.0	-0.0	-0.0	-0.0	169515.375	-22666.54296875	1712.127197265625
0.35100000000000003	-0.0	-0.0	-0.0	-0.0	-0.0	-0.0	4.977780818939209	-3.5919277667999268	-499.7909240722656	-0.0	-0.0	-0.0	-0.0	-0.0	-0.0	169374.765625	-22627.46484375	2089.119140625
0.35150000000000003	-0.0	-0.0	-0.0	-0.0	-0.0	-0.0	5.69728946685791	-3.797832489013672	-500.5281677246094	-0.0	-0.0	-0.0	-0.0	-0.0	-0.0	169474.515625	-22749.125	2283.933837890625
0.352	-0.0	-0.0	-0.0	-0.0	-0.0	-0.0	6.21944522857666	-3.86685848236084	-500.75970458984375	-0.0	-0.0	-0.0	-0.0	-0.0	-0.0	169302.59375	-22396.935546875	2422.680419921875
0.3525	-0.0	-0.0	-0.0	-0.0	-0.0	-0.0	6.298465728759766	-3.925547361373901	-499.4375915527344	-0.0	-0.0	-0.0	-0.0	-0.0	-0.0	169320.15625	-22509.173828125	2455.569580078125
0.353	-0.0	-0.0	-0.0	-0.0	-0.0	-0.0	5.735980033874512	-4.199970722198486	-500.1782531738281	-0.0	-0.0	-0.0	-0.0	-0.0	-0.0	169635.40625	-22359.29296875	2402.64892578125
0.3535	-0.0	-0.0	-0.0	-0.0	-0.0	-0.0	5.549069404602051	-3.974475860595703	-499.2502746582031	-0.0	-0.0	-0.0	-0.0	-0.0	-0.0	169359.953125	-21962.66015625	2237.91162109375
0.354	-0.0	-0.0	-0.0	-0.0	-0.0	-0.0	5.6285552978515625	-4.102398872375488	-499.2023620605469	-0.0	-0.0	-0.0	-0.0	-0.0	-0.0	169542.5625	-21661.41015625	2195.037109375
0.3545	-0.0	-0.0	-0.0	-0.0	-0.0	-0.0	5.27377986907959	-4.199771881103516	-498.46722412109375	-0.0	-0.0	-0.0	-0.0	-0.0	-0.0	169319.859375	-21390.4375	1944.169921875
0.355	-0.0	-0.0	-0.0	-0.0	-0.0	-0.0	4.129506587982178	-3.74923586845398	-498.97271728515625	-0.0	-0.0	-0.0	-0.0	-0.0	-0.0	169513.34375	-21194.8046875	1626.123779296875
0.3555	-0.0	-0.0	-0.0	-0.0	-0.0	-0.0	3.127342462539673	-3.413461685180664	-501.1015319824219	-0.0	-0.0	-0.0	-0.0	-0.0	-0.0	169776.859375	-20758.13671875	1116.8787841796875
0.356	-0.0	-0.0	-0.0	-0.0	-0.0	-0.0	2.878788471221924	-3.1053683757781982	-500.2106018066406	-0.0	-0.0	-0.0	-0.0	-0.0	-0.0	170300.203125	-20856.5390625	769.639892578125
0.3565	-0.0	-0.0	-0.0	-0.0	-0.0	-0.0	2.4839019775390625	-2.6895744800567627	-499.6024475097656	-0.0	-0.0	-0.0	-0.0	-0.0	-0.0	170515.375	-20593.287109375	537.8821411132812
0.357	-0.0	-0.0	-0.0	-0.0	-0.0	-0.0	2.606039762496948	-2.4013257026672363	-500.4266357421875	-0.0	-0.0	-0.0	-0.0	-0.0	-0.0	170921.296875	-20480.888671875	262.6310119628906
0.3575	-0.0	-0.0	-0.0	-0.0	-0.0	-0.0	2.572612762451172	-2.4247424602508545	-500.7444458007813	-0.0	-0.0	-0.0	-0.0	-0.0	-0.0	171366.40625	-20429.056640625	292.3407592773437
0.358	-0.0	-0.0	-0.0	-0.0	-0.0	-0.0	2.306480407714844	-1.6700459718704224	-500.8420715332031	-0.0	-0.0	-0.0	-0.0	-0.0	-0.0	171799.09375	-20597.333984375	-101.25341033935548
0.3585	-0.0	-0.0	-0.0	-0.0	-0.0	-0.0	1.6695904731750488	-0.0481219924986362	-501.2228088378906	-0.0	-0.0	-0.0	-0.0	-0.0	-0.0	171895.8125	-20468.421875	-489.6118774414063
0.359	-0.0	-0.0	-0.0	-0.0	-0.0	-0.0	0.7983970642089844	1.2365036010742188	-501.7617492675781	-0.0	-0.0	-0.0	-0.0	-0.0	-0.0	172533.078125	-20384.5703125	-751.6166381835938
0.3595	-0.0	-0.0	-0.0	-0.0	-0.0	-0.0	0.7501968145370483	1.764380931854248	-501.8298034667969	-0.0	-0.0	-0.0	-0.0	-0.0	-0.0	172383.21875	-20402.498046875	-991.4779663085938
0.36	-0.0	-0.0	-0.0	-0.0	-0.0	-0.0	0.7983970642089844	2.175168037414551	-500.3045043945313	-0.0	-0.0	-0.0	-0.0	-0.0	-0.0	172545.921875	-20046.1015625	-1018.4981689453124
0.3605	-0.0	-0.0	-0.0	-0.0	-0.0	-0.0	0.5322647094726562	2.094088554382324	-499.03900146484375	-0.0	-0.0	-0.0	-0.0	-0.0	-0.0	172202.734375	-19828.412109375	-939.7300415039062
0.361	-0.0	-0.0	-0.0	-0.0	-0.0	-0.0	0.3548431396484375	1.6230642795562744	-498.88031005859375	-0.0	-0.0	-0.0	-0.0	-0.0	-0.0	172132.5625	-19806.740234375	-996.7372436523438
0.3615	-0.0	-0.0	-0.0	-0.0	-0.0	-0.0	-0.1774215698242187	1.8476289510726929	-496.9750671386719	-0.0	-0.0	-0.0	-0.0	-0.0	-0.0	171763.859375	-19482.92578125	-1076.4105224609375
0.362	-0.0	-0.0	-0.0	-0.0	-0.0	-0.0	-0.7645803093910217	1.5351370573043823	-496.9758605957031	-0.0	-0.0	-0.0	-0.0	-0.0	-0.0	171486.65625	-19282.791015625	-1353.3916015625
0.3625	-0.0	-0.0	-0.0	-0.0	-0.0	-0.0	-1.958527684211731	1.4470174312591553	-496.6546325683594	-0.0	-0.0	-0.0	-0.0	-0.0	-0.0	171628.421875	-19232.63671875	-1541.2513427734375
0.363	-0.0	-0.0	-0.0	-0.0	-0.0	-0.0	-2.238103151321411	1.5557516813278198	-496.6548461914063	-0.0	-0.0	-0.0	-0.0	-0.0	-0.0	171830.421875	-19109.408203125	-1641.7845458984375
0.3635	-0.0	-0.0	-0.0	-0.0	-0.0	-0.0	-2.2045226097106934	2.0248043537139893	-497.1658630371094	-0.0	-0.0	-0.0	-0.0	-0.0	-0.0	172043.859375	-19138.626953125	-1589.1871337890625
0.364	-0.0	-0.0	-0.0	-0.0	-0.0	-0.0	-2.7695083618164062	2.0723280906677246	-498.77587890625	-0.0	-0.0	-0.0	-0.0	-0.0	-0.0	172462.78125	-19021.814453125	-1787.797607421875
0.3645	-0.0	-0.0	-0.0	-0.0	-0.0	-0.0	-3.063710927963257	2.132420063018799	-500.359375	-0.0	-0.0	-0.0	-0.0	-0.0	-0.0	173009.578125	-19095.81640625	-1868.339111328125
0.365	-0.0	-0.0	-0.0	-0.0	-0.0	-0.0	-3.589674949645996	1.9368809461593628	-501.0325927734375	-0.0	-0.0	-0.0	-0.0	-0.0	-0.0	173768.375	-19218.05859375	-1975.76025390625
0.3655	-0.0	-0.0	-0.0	-0.0	-0.0	-0.0	-3.5606136322021484	2.5673933029174805	-502.4051818847656	-0.0	-0.0	-0.0	-0.0	-0.0	-0.0	174179.59375	-19037.416015625	-2153.541259765625
0.366	-0.0	-0.0	-0.0	-0.0	-0.0	-0.0	-3.637142181396485	2.561328887939453	-503.8023071289063	-0.0	-0.0	-0.0	-0.0	-0.0	-0.0	174801.234375	-19269.98828125	-2254.410400390625
0.3665	-0.0	-0.0	-0.0	-0.0	-0.0	-0.0	-3.826211452484131	2.4375438690185547	-504.455322265625	-0.0	-0.0	-0.0	-0.0	-0.0	-0.0	175442.171875	-19132.9375	-2303.986328125
0.367	-0.0	-0.0	-0.0	-0.0	-0.0	-0.0	-3.85035252571106	2.690968513488769	-506.5964965820313	-0.0	-0.0	-0.0	-0.0	-0.0	-0.0	175984.296875	-19401.16015625	-2387.1455078125
0.3675	-0.0	-0.0	-0.0	-0.0	-0.0	-0.0	-3.4237003326416016	3.2099106311798096	-506.59710693359375	-0.0	-0.0	-0.0	-0.0	-0.0	-0.0	176452.734375	-19497.451171875	-2360.83984375
0.368	-0.0	-0.0	-0.0	-0.0	-0.0	-0.0	-3.3981330394744877	3.3976845741271973	-508.8778076171875	-0.0	-0.0	-0.0	-0.0	-0.0	-0.0	177130.984375	-19608.07421875	-2585.952880859375
0.3685	-0.0	-0.0	-0.0	-0.0	-0.0	-0.0	-3.606065034866333	3.174292802810669	-508.3438720703125	-0.0	-0.0	-0.0	-0.0	-0.0	-0.0	177465.1875	-19356.1171875	-2673.298095703125
